# xmcd CD database file
#
# Track frame offsets:
#	150
#	20018
#	39110
#	60782
#	91042
#	113225
#	133850
#	154960
#	175499
#	200821
#	218144
#	237350
#	258439
#	285390
#
# Disc length: 4105 seconds
#
# Revision: 0
# Processed by: cddbd v1.5.1PL0 Copyright (c) Steve Scherf et al.
# Submitted via: CDex 1.51
#
DISCID=c110070e
DTITLE=Chevelle - 2005-05-07-The Handlebar-Greenville, SC
DYEAR=2005
DGENRE=Jazz
TTITLE0=Another Know It All
TTITLE1=Vitamin R
TTITLE2=Still Running
TTITLE3=Emotional Drought
TTITLE4=Get Some
TTITLE5=Forfeit
TTITLE6=Grab Thy Hand
TTITLE7=Send The Pain Below
TTITLE8=Thieves
TTITLE9=Comfortable Liar
TTITLE10=The Red
TTITLE11=Closure
TTITLE12=Wonder What's Next
TTITLE13=The Clincher
EXTD=YEAR: 2005
EXTT0=
EXTT1=
EXTT2=
EXTT3=
EXTT4=
EXTT5=
EXTT6=
EXTT7=
EXTT8=
EXTT9=
EXTT10=
EXTT11=
EXTT12=
EXTT13=
PLAYORDER=
